<?xml version="1.0" standalone="no"?>
<!DOCTYPE svg PUBLIC "-//W3C//DTD SVG 20010904//EN"
 "http://www.w3.org/TR/2001/REC-SVG-20010904/DTD/svg10.dtd">
<svg version="1.0" xmlns="http://www.w3.org/2000/svg"
 width="4676.000000pt" height="4676.000000pt" viewBox="0 0 4676.000000 4676.000000"
 preserveAspectRatio="xMidYMid meet">
<metadata>
Created by potrace 1.16, written by Peter Selinger 2001-2019
</metadata>
<g transform="translate(0.000000,4676.000000) scale(0.100000,-0.100000)"
fill="#000000" stroke="none">
<path d="M17302 40889 c-74 -10 -173 -61 -231 -119 -107 -107 -145 -265 -96
-400 7 -19 364 -726 793 -1570 574 -1130 791 -1547 821 -1582 24 -27 66 -59
99 -75 49 -24 69 -28 142 -28 77 0 92 4 161 36 90 43 163 113 204 196 37 76
46 194 20 272 -9 29 -336 681 -727 1449 -390 768 -743 1462 -783 1542 -82 161
-130 219 -210 255 -58 26 -118 34 -193 24z"/>
<path d="M13675 38019 c-115 -40 -202 -115 -256 -219 -20 -37 -24 -60 -24
-135 0 -98 18 -150 73 -208 15 -16 636 -518 1380 -1115 959 -771 1371 -1096
1415 -1117 57 -27 71 -30 167 -30 100 0 109 2 175 34 83 41 171 124 205 196
51 104 36 250 -35 332 -18 22 -644 530 -1389 1129 -981 787 -1374 1097 -1419
1119 -84 40 -203 46 -292 14z"/>
<path d="M23745 37564 c-729 -45 -1332 -258 -1815 -642 -260 -207 -456 -451
-605 -754 -148 -300 -231 -637 -265 -1073 -8 -101 -11 -2666 -10 -9117 l1
-8977 -63 -42 c-252 -170 -500 -379 -758 -638 -429 -430 -725 -840 -991 -1371
-562 -1124 -702 -2402 -398 -3630 94 -381 191 -645 370 -1005 261 -528 568
-948 1000 -1370 404 -394 837 -700 1359 -959 603 -300 1174 -465 1895 -548
178 -21 844 -17 1025 5 783 98 1478 346 2133 761 526 334 1038 809 1422 1321
572 762 923 1624 1030 2530 26 214 31 722 11 955 -98 1125 -552 2182 -1314
3058 -271 311 -738 729 -1004 897 l-48 30 0 8320 c0 5838 3 8461 11 8792 23
966 -33 1529 -192 1930 -332 840 -1168 1399 -2259 1513 -106 11 -443 20 -535
14z m365 -804 c437 -33 800 -140 1075 -318 395 -254 644 -696 710 -1260 13
-111 15 -1251 15 -9284 0 -6742 3 -9171 11 -9210 25 -119 87 -196 226 -283
309 -192 576 -409 848 -686 343 -351 587 -696 806 -1143 603 -1229 605 -2682
5 -3902 -137 -279 -281 -514 -456 -744 -206 -270 -501 -574 -750 -773 -947
-758 -2156 -1061 -3400 -851 -895 151 -1754 585 -2404 1214 -731 709 -1154
1556 -1282 2570 -21 169 -30 682 -15 865 56 671 238 1300 520 1799 182 323
385 595 688 921 158 171 222 224 445 370 307 201 410 277 514 380 82 82 108
115 140 179 l39 80 3 8485 c2 6064 0 8614 -8 8936 -17 706 7 1033 105 1389 84
305 217 549 399 732 109 108 186 167 321 244 378 218 931 329 1445 290z"/>
<path d="M20130 35370 c-1370 -65 -2621 -802 -3352 -1973 -45 -73 -126 -217
-179 -322 -228 -450 -361 -896 -425 -1425 -23 -183 -26 -691 -6 -880 130
-1222 752 -2293 1742 -3000 652 -466 1460 -742 2243 -767 l187 -6 0 4191 0
4192 -27 -2 c-16 0 -98 -4 -183 -8z"/>
<path d="M11732 33965 c-29 -8 -66 -22 -84 -31 -54 -28 -128 -111 -161 -182
-30 -63 -32 -73 -32 -182 0 -101 3 -120 23 -158 35 -65 88 -119 145 -146 35
-17 601 -150 1767 -416 1659 -379 1718 -392 1800 -388 73 3 94 9 148 38 267
142 282 546 26 671 -51 24 -3435 798 -3519 804 -36 3 -81 -1 -113 -10z"/>
<path d="M28303 32379 c-131 -50 -218 -211 -198 -363 23 -168 121 -273 277
-297 39 -6 430 -9 1008 -7 888 3 948 4 992 22 71 27 140 94 174 168 25 55 29
75 29 158 0 81 -4 103 -26 150 -34 74 -76 120 -141 156 l-53 29 -1005 2 c-986
2 -1006 2 -1057 -18z"/>
<path d="M13390 29819 c-1841 -421 -1794 -409 -1865 -491 -57 -68 -78 -136
-73 -248 3 -81 8 -105 35 -162 42 -89 100 -151 182 -191 128 -63 20 -83 1955
361 1213 278 1725 399 1762 417 61 30 118 89 148 154 17 38 21 65 21 152 0
101 -1 108 -38 181 -46 93 -121 167 -202 197 -119 45 -56 57 -1925 -370z"/>
<path d="M28301 28338 c-203 -78 -265 -386 -111 -560 24 -28 62 -56 102 -74
l63 -29 985 0 c927 0 988 1 1037 18 74 26 143 92 179 169 25 55 29 75 29 158
0 81 -4 103 -26 150 -34 74 -76 120 -141 156 l-53 29 -1005 2 c-997 2 -1005 2
-1059 -19z"/>
<path d="M16295 27442 c-28 -9 -66 -28 -85 -42 -54 -38 -2691 -2139 -2728
-2174 -18 -17 -47 -59 -64 -93 -28 -58 -30 -69 -26 -141 4 -64 10 -89 38 -140
41 -77 109 -141 198 -184 63 -31 73 -33 177 -33 100 0 115 3 165 27 81 40
2782 2197 2818 2251 40 58 52 99 52 173 0 137 -85 261 -228 331 -70 35 -84 38
-171 41 -72 2 -109 -2 -146 -16z"/>
<path d="M18717 25556 c-53 -19 -111 -62 -142 -102 -15 -19 -381 -737 -815
-1596 -861 -1704 -824 -1624 -800 -1747 47 -249 320 -407 536 -311 104 46 73
-11 925 1675 433 858 793 1582 800 1609 18 76 7 184 -26 253 -39 79 -119 156
-202 195 -56 27 -82 33 -153 35 -56 2 -98 -2 -123 -11z"/>
<path d="M28325 23946 c-238 -74 -301 -426 -107 -597 89 -78 25 -74 1137 -74
l990 0 53 24 c267 121 247 563 -30 646 -45 13 -181 15 -1027 14 -753 0 -985
-3 -1016 -13z"/>
</g>
</svg>
